<?xml version="1.0" encoding="utf-8"?>
<!-- Generator: Adobe Illustrator 24.0.2, SVG Export Plug-In . SVG Version: 6.00 Build 0)  -->
<svg version="1.1" id="Capa_1" xmlns="http://www.w3.org/2000/svg" xmlns:xlink="http://www.w3.org/1999/xlink" x="0px" y="0px"
	 viewBox="0 0 266.1 131.8" style="enable-background:new 0 0 266.1 131.8;" xml:space="preserve">
<style type="text/css">
	.st0{fill:#F1AF42;}
	.st1{fill:#FFFFFF;}
</style>
<g>
	<path class="st0" d="M248.4,65.9c0,0.3-0.1,0.5-0.2,0.8v37c0,1-0.8,1.8-1.8,1.8s-1.8-0.8-1.8-1.8V67.8h-34.2v35.8
		c0,1-0.8,1.8-1.8,1.8c-1,0-1.8-0.8-1.8-1.8V67.8h-34.2v35.8c0,1-0.8,1.8-1.8,1.8s-1.8-0.8-1.8-1.8V67.8h-34.2v35.8
		c0,1-0.8,1.8-1.8,1.8s-1.8-0.8-1.8-1.8V67.8H97.1v35.8c0,1-0.8,1.8-1.8,1.8s-1.8-0.8-1.8-1.8V67.8H59.3v35.8c0,1-0.8,1.8-1.8,1.8
		c-1,0-1.8-0.8-1.8-1.8V67.8H21.5v35.8c0,1-0.8,1.8-1.8,1.8s-1.8-0.8-1.8-1.8v-37c-0.1-0.2-0.2-0.5-0.2-0.8c0-0.3,0.1-0.5,0.2-0.8
		v-37c0-1,0.8-1.8,1.8-1.8s1.8,0.8,1.8,1.8v35.8h34.2V28.1c0-1,0.8-1.8,1.8-1.8c1,0,1.8,0.8,1.8,1.8v35.8h34.2V28.1
		c0-1,0.8-1.8,1.8-1.8s1.8,0.8,1.8,1.8v35.8h34.2V28.1c0-1,0.8-1.8,1.8-1.8s1.8,0.8,1.8,1.8v35.8h34.2V28.1c0-1,0.8-1.8,1.8-1.8
		s1.8,0.8,1.8,1.8v35.8h34.2V28.1c0-1,0.8-1.8,1.8-1.8c1,0,1.8,0.8,1.8,1.8v35.8h34.2V28.1c0-1,0.8-1.8,1.8-1.8s1.8,0.8,1.8,1.8v37
		C248.3,65.3,248.4,65.6,248.4,65.9z M199.2,81.6c0,0,0,0.1,0,0.1v11.1c0,5.2-3.9,8.9-9.4,8.9c-5.5,0-9.4-3.7-9.4-8.9l0-13.6
		c0-3.4,2.1-5.4,5.6-5.4h7.5c3.5,0,5.6,2,5.6,5.3L199.2,81.6z M195.6,81.8l-0.1-2.5c0,0,0-0.1,0-0.1c0-1.2-0.3-1.8-2.1-1.8H186
		c-1.8,0-2.1,0.6-2.1,1.8c0,0,0,0,0,0l0,2.5v11.1c0,3.3,2.3,5.4,5.9,5.4c3.6,0,5.9-2.1,5.9-5.4V81.8z M187.9,83.4h3.8
		c1,0,1.8-0.8,1.8-1.8s-0.8-1.8-1.8-1.8h-3.8c-1,0-1.8,0.8-1.8,1.8S186.9,83.4,187.9,83.4z M192.4,89.6c0,0-1.1,0.3-2.6,0.3
		c-1.6,0-2.6-0.3-2.6-0.3c-0.9-0.3-1.9,0.2-2.2,1.1c-0.3,0.9,0.2,1.9,1.1,2.2c0.2,0.1,1.5,0.5,3.7,0.5c2.1,0,3.5-0.4,3.7-0.5
		c0.9-0.3,1.4-1.3,1.2-2.2C194.3,89.8,193.3,89.3,192.4,89.6z M237,82.7l0,13.6c0,3.4-2.1,5.4-5.6,5.4h-7.5c-3.5,0-5.6-2-5.6-5.3
		l-0.1-2.5c0,0,0-0.1,0-0.1V82.7c0-5.2,3.9-8.9,9.4-8.9C233.1,73.8,237,77.5,237,82.7z M233.4,82.7c0-3.3-2.3-5.4-5.9-5.4
		c-3.6,0-5.9,2.1-5.9,5.4v11l0.1,2.5c0,0,0,0.1,0,0.1c0,1.2,0.3,1.8,2.1,1.8h7.5c1.8,0,2.1-0.6,2.1-1.8c0,0,0,0,0,0l0-2.5V82.7z
		 M229.4,92.1h-3.8c-1,0-1.8,0.8-1.8,1.8s0.8,1.8,1.8,1.8h3.8c1,0,1.8-0.8,1.8-1.8S230.4,92.1,229.4,92.1z M227.5,82.1
		c-2.1,0-3.5,0.4-3.7,0.5c-0.9,0.3-1.4,1.3-1.2,2.2c0.3,0.9,1.3,1.5,2.2,1.2c0,0,1.1-0.3,2.6-0.3c1.6,0,2.6,0.3,2.6,0.3
		c0.2,0.1,0.4,0.1,0.5,0.1c0.7,0,1.4-0.5,1.7-1.2c0.3-0.9-0.2-1.9-1.1-2.2C231.1,82.5,229.7,82.1,227.5,82.1z"/>
	<path class="st1" d="M43.3,50.2c0-2-0.5-2.5-4.6-2.8c-5.2-0.4-8.5-1.7-8.5-6.8c0-4.5,3.6-7.3,8.6-7.3c3.1,0,6.8,1.1,8.2,3.8
		c1.1,2.1-2.2,4.6-4,2.1c-1-1.2-3.1-1.4-4.2-1.4c-2.2,0-4.2,0.7-4.2,2.9c0,2,0.9,2.2,4.4,2.4c5.3,0.5,8.8,1.8,8.8,7.2
		c0,4.7-4.5,7.2-9.4,7.2c-3.4,0-6.2-0.9-8.2-4c-1.3-2.2,2.4-4.2,4.1-1.7c0.8,1,2.7,1.2,4,1.2C40.5,53,43.3,52.2,43.3,50.2z
		 M70.4,52.7c-1.3-0.1-2.3,1-2.3,2.3c0,1.3,1,2.3,2.3,2.3h12.4c1.3,0,2.3-1,2.3-2.3c0-1.3-1-2.4-2.3-2.3l-3.9,0.4V37.6l3.9,0.4
		c1.3,0.1,2.3-1,2.3-2.3c0-1.3-1-2.3-2.3-2.3H70.4c-1.3,0-2.3,1-2.3,2.3c0,1.3,1,2.4,2.3,2.3l3.9-0.4v15.4L70.4,52.7z M110.4,55
		V44.9l2.1,4c0.8,1.5,3,1.5,3.7,0l2-4V55c0,3,4.6,3,4.6,0V35.7c0-2.3-3.2-3.3-4.2-1.2l-4.3,8.9l-4.3-8.9c-1.1-2.1-4.2-1.1-4.2,1.2
		V55C105.8,58,110.4,58,110.4,55z M161,41.3c0,5.2-4.1,7.8-9.9,7.8h-3.5v6c0,3-4.5,2.9-4.5,0V35.7c0-1.4,1.2-2.2,2.2-2.2h5.7
		C157.1,33.4,161,36.1,161,41.3z M156.5,41.3c0-2.5-2.2-3.4-5.5-3.4h-3.5v6.7h3.5C154.4,44.6,156.5,43.7,156.5,41.3z M196,52.7
		h-10.2V35.7c0-3-4.6-3-4.6,0V55c0,1.3,1,2.3,2.3,2.3H196C199,57.2,199,52.7,196,52.7z M233.8,52.7h-10.1v-5h6.9
		c1.3,0,2.3-1,2.3-2.3s-1-2.3-2.3-2.3h-6.9v-5h10.1c1.3,0,2.3-1,2.3-2.3c0-1.3-1-2.3-2.3-2.3h-12.2c-1.4,0-2.5,1.1-2.5,2.5v18.8
		c0,1.4,1.2,2.5,2.5,2.5h12.2c1.3,0,2.3-1,2.3-2.3C236,53.7,235,52.7,233.8,52.7z M47.7,82.1c0,5.2-4.1,7.8-9.9,7.8h-3.5v6
		c0,3-4.5,2.9-4.5,0V76.5c0-1.4,1.2-2.2,2.2-2.2h5.7C43.8,74.2,47.7,76.9,47.7,82.1z M43.3,82.1c0-2.5-2.2-3.4-5.5-3.4h-3.5v6.7h3.5
		C41.2,85.4,43.3,84.5,43.3,82.1z M86.2,94.8c1.1,2.8-3.1,4.7-4.1,1.9l-1.4-3.7h-8.3l-1.3,3.7c-1.1,2.8-5.3,0.9-4.2-1.9l7.4-19
		c0.6-1.9,3.7-2.1,4.4,0L86.2,94.8z M79.4,88.4L76.5,81l-2.9,7.4H79.4z M122.8,94.5c1.7,2.5-2.1,5-3.7,2.5l-4.9-7.2l-4.5,0v6
		c0,3-4.5,2.9-4.5,0V76.5c0-1.4,1.2-2.2,2.2-2.2h5.7c5.9,0,9.9,2.6,9.9,7.8c0,3.1-1.4,5.4-4.2,6.8L122.8,94.5z M118.8,82.1
		c0-2.7-2.1-3.4-5.5-3.4h-3.5v6.7h3.5C116.6,85.4,118.8,84.6,118.8,82.1z M157.1,74.8l-8.9,9v-7.2c0-3.1-4.6-3.1-4.6,0v19.2
		c0,3,4.6,3,4.6,0v-6.2l1.9-1.9l6.7,9.7c1.6,2.3,5.1-0.7,3.3-3.2l-6.6-9.3l6.5-6.5C162,76.3,159.2,72.6,157.1,74.8z"/>
</g>
</svg>
